# Blender v2.92.0 OBJ File: 'fantastic-cube.blend'
# www.blender.org
mtllib nami-head.mtl
o NamiHead_Cube.001
v -1.000000 -0.666667 1.000000
v -1.000000 0.666667 1.000000
v -1.000000 -0.666667 -1.000000
v -1.000000 0.666667 -1.000000
v 1.000000 -0.666667 1.000000
v 1.000000 0.666667 1.000000
v 1.000000 -0.666667 -1.000000
v 1.000000 0.666667 -1.000000
vt 0.221941 0.558909
vt 0.221941 0.704751
vt 0.079760 0.704751
vt 0.079760 0.558909
vt 0.648540 0.558909
vt 0.648540 0.704751
vt 0.506379 0.704751
vt 0.506667 0.558909
vt 0.364607 0.704751
vt 0.364436 0.558909
vt 0.506405 0.340364
vt 0.364868 0.340364
vt 0.506027 0.924431
vt 0.364574 0.924431
vn -1.0000 0.0000 0.0000
vn 0.0000 0.0000 -1.0000
vn 1.0000 0.0000 0.0000
vn 0.0000 0.0000 1.0000
vn 0.0000 -1.0000 0.0000
vn 0.0000 1.0000 0.0000
usemtl Head
s off
f 1/1/1 2/2/1 4/3/1 3/4/1
f 3/5/2 4/6/2 8/7/2 7/8/2
f 7/8/3 8/7/3 6/9/3 5/10/3
f 5/10/4 6/9/4 2/2/4 1/1/4
f 3/11/5 7/8/5 5/10/5 1/12/5
f 8/7/6 4/13/6 2/14/6 6/9/6
